<?xml version="1.0" encoding="utf-8"?>
<!-- Generator: Adobe Illustrator 22.0.1, SVG Export Plug-In . SVG Version: 6.00 Build 0)  -->
<svg version="1.1" id="Layer_1" xmlns="http://www.w3.org/2000/svg" xmlns:xlink="http://www.w3.org/1999/xlink" x="0px" y="0px"
	 viewBox="0 0 1366 768" style="enable-background:new 0 0 1366 768;" xml:space="preserve">
<style type="text/css">
	.st0{fill:#1F5C85;}
	.st1{fill:#16415E;}
	.st2{fill:#FFFFFF;}
	.st3{opacity:0.2;}
	.st4{fill:#CCCCCC;}
</style>
<g>
	<circle class="st0" cx="717.8" cy="398" r="272"/>
</g>
<g>
	<path class="st1" d="M778.6,263L660,381.7l103.7,103.7l-90.7,90.7l90.2,90.2c106.3-17.7,191.8-97.2,218.3-200.3L778.6,263z"/>
</g>
<g>
	<circle class="st2" cx="717.8" cy="336.1" r="95"/>
</g>
<g>
	
		<rect x="462.7" y="413.5" transform="matrix(0.7071 -0.7071 0.7071 0.7071 -147.4273 507.9037)" class="st2" width="153.4" height="36.7"/>
</g>
<g>
	<path class="st2" d="M635.4,244.6c-45.7,0-82.8,37.1-82.8,82.8s37.1,82.8,82.8,82.8c45.7,0,82.8-37.1,82.8-82.8
		S681.1,244.6,635.4,244.6z M635.4,382.3c-30.3,0-54.9-24.6-54.9-54.9s24.6-54.9,54.9-54.9c30.3,0,54.9,24.6,54.9,54.9
		S665.7,382.3,635.4,382.3z"/>
</g>
<g>
	<path class="st0" d="M671.5,252.8c-9.7,5.4-18.4,12.4-25.6,20.6c25.3,4.9,44.4,27.2,44.4,53.9c0,30.3-24.6,54.9-54.9,54.9
		c-0.4,0-0.7,0-1.1,0c5.4,9.7,12.4,18.3,20.8,25.6c36.2-8.8,63.2-41.5,63.2-80.5C718.2,294.6,699.1,266.3,671.5,252.8z"/>
</g>
<g>
	<ellipse class="st0" cx="659.8" cy="328.3" rx="21.8" ry="33.1"/>
</g>
<g>
	<path class="st2" d="M717.3,450.3c-51.6,0-93.6,41.1-95,92.4h-0.1v109.9c29.8,11.2,62.1,17.4,95.9,17.4c33.1,0,64.8-5.9,94.2-16.7
		V542.7h-0.1C810.9,491.4,768.9,450.3,717.3,450.3z"/>
</g>
<g>
	<path class="st0" d="M781.4,335.2h-39.3c-1.6,0-3-1.4-3-3v-7.9c0-1.6,1.4-3,3-3h39.3c1.6,0,3,1.4,3,3v7.9
		C784.4,333.9,783.1,335.2,781.4,335.2z"/>
</g>
<g class="st3">
	<path class="st4" d="M716.4,241.1c-0.3,0-0.6,0-0.9,0c-52.5,0-95,42.5-95,95c0,52.5,42.5,95,95,95c0.3,0,0.6,0,0.9,0V241.1z"/>
</g>
<g class="st3">
	<path class="st4" d="M716.4,450.3c-51.2,0.5-92.7,41.4-94.1,92.4h-0.1v109.9c29.3,11,61,17.2,94.2,17.4V450.3z"/>
</g>
</svg>
