<svg id="Layer_1" data-name="Layer 1" xmlns="http://www.w3.org/2000/svg" viewBox="0 0 320 258"><defs><style>.cls-1{fill:#39b54a;}</style></defs><title>LogoNew</title><path d="M68,106.35a32.07,32.07,0,0,1,0-64.13V18h-.36a56.65,56.65,0,0,0,0,113.29H68Z"/><path d="M80,131.94a32.06,32.06,0,0,1,0,64.12v24.22h.36a56.65,56.65,0,0,0,0-113.29H80Z"/><rect class="cls-1" x="80" y="18" width="100" height="24"/><rect class="cls-1" x="192" y="18" width="100" height="24"/><polygon class="cls-1" points="70.5 225.34 61 235 7.58 191.74 22.24 177.08 70.5 225.34"/><polygon class="cls-1" points="22.24 240 14 231 55.84 177.08 70.5 191.74 22.24 240"/></svg>