<?xml version="1.0" encoding="utf-8"?>
<!-- Generator: Adobe Illustrator 22.0.1, SVG Export Plug-In . SVG Version: 6.00 Build 0)  -->
<svg version="1.1" id="Layer_1" xmlns="http://www.w3.org/2000/svg" xmlns:xlink="http://www.w3.org/1999/xlink" x="0px" y="0px"
	 viewBox="0 0 1366 768" style="enable-background:new 0 0 1366 768;" xml:space="preserve">
<style type="text/css">
	.st0{fill:#6BB9F0;}
	.st1{fill:#3E8CC2;}
	.st2{fill:#FFFFFF;}
	.st3{opacity:0.2;}
	.st4{fill:#CCCCCC;}
</style>
<g>
	<circle class="st0" cx="713.4" cy="401.3" r="272"/>
</g>
<g>
	<path class="st1" d="M982.5,416.5L829.6,263.6l-267,267l142.3,142.3c2,0,4,0.1,6.1,0.1C856,673,974.5,559.5,982.5,416.5z"/>
</g>
<g>
	<path class="st2" d="M749.7,226.3c-57.3,0-103.8,46.5-103.8,103.8c0,23.1,7.5,44.4,20.3,61.7L545.1,512.9l32.6,32.6l123.5-123.5
		c14.5,7.7,31,12,48.5,12c57.3,0,103.8-46.5,103.8-103.8S807,226.3,749.7,226.3z M749.7,399c-38,0-68.9-30.8-68.9-68.9
		s30.8-68.9,68.9-68.9c38,0,68.9,30.8,68.9,68.9S787.7,399,749.7,399z"/>
</g>
<g class="st3">
	<path class="st4" d="M562.7,530.5L708.2,385c-16.6-12.6-27.3-32.5-27.3-54.9c0-38,30.8-68.9,68.9-68.9c22.4,0,42.3,10.7,54.9,27.3
		l24.7-24.7l-14.8-14.8c-17.8-14.2-40.3-22.8-64.9-22.8c-57.3,0-103.8,46.5-103.8,103.8c0,23.1,7.5,44.4,20.3,61.7L545.1,512.9
		L562.7,530.5z"/>
</g>
<g>
	<circle class="st0" cx="749.5" cy="330.5" r="69.5"/>
</g>
</svg>
