<?xml version="1.0" encoding="utf-8"?>
<!-- Generator: Adobe Illustrator 22.0.1, SVG Export Plug-In . SVG Version: 6.00 Build 0)  -->
<svg version="1.1" id="Layer_1" xmlns="http://www.w3.org/2000/svg" xmlns:xlink="http://www.w3.org/1999/xlink" x="0px" y="0px"
	 viewBox="0 0 1366 768" style="enable-background:new 0 0 1366 768;" xml:space="preserve">
<style type="text/css">
	.st0{fill:#EB4B37;}
	.st1{fill:#B03829;}
	.st2{fill:#FFFFFF;}
	.st3{opacity:0.2;fill:#CCCCCC;}
</style>
<g>
	<circle class="st0" cx="721.5" cy="423.5" r="272"/>
</g>
<g>
	<path class="st1" d="M994,424c0-26.2-3.7-51.6-10.6-75.6L868.6,233.6l-297,297L613,572l-39.8,39.8l73.6,73.6
		c23.9,6.9,49.1,10.5,75.2,10.5C872.2,696,994,574.2,994,424z"/>
</g>
<g>
	
		<rect x="621.3" y="379.5" transform="matrix(0.7071 -0.7071 0.7071 0.7071 -103.1464 653.4825)" class="st0" width="232" height="143.5"/>
</g>
<path class="st2" d="M688,234.7l-20.2,34.9l-20.2-34.9h-1.1l-14.4,25l-14.4-25h-43.9v377.6h218.9l20.2-34.9l20.2,34.9h36.2V234.7
	H688z M674,391h24v58h-24V391z M609,319h24v58h-24V319z M609,391h24v58h-24V391z M653.6,509c-24.6,0-44.6-20-44.6-44.6
	c0-0.1,0-0.3,0-0.4h23.8c0,0.1,0,0.3,0,0.4c0,11.5,9.3,20.8,20.8,20.8c11.5,0,20.8-9.3,20.8-20.8c0-0.1,0-0.3,0-0.4h23.8
	c0,0.1,0,0.3,0,0.4C698.2,489,678.2,509,653.6,509z M697.8,376.6c0,0.1,0,0.3,0,0.4H674c0-0.1,0-0.3,0-0.4c0-24.6,20-44.6,44.6-44.6
	c24.6,0,44.6,20,44.6,44.6c0,0.1,0,0.3,0,0.4h-23.8c0-0.1,0-0.3,0-0.4c0-11.5-9.3-20.8-20.8-20.8
	C707.1,355.8,697.8,365.1,697.8,376.6z M763,389v58h-24v-58H763z M780,506l-17,17l-11-11l-13,13l-17-17l13-13l-13-13l17-17l13,13
	l11-11l17,17l-11,11L780,506z"/>
<polygon class="st3" points="574,612.3 722,612.3 722,234.7 688,234.7 667.8,269.6 647.7,234.7 646.6,234.7 632.1,259.7 
	617.7,234.7 574,234.7 "/>
</svg>
