<?xml version="1.0" encoding="utf-8"?>
<!-- Generator: Adobe Illustrator 22.0.1, SVG Export Plug-In . SVG Version: 6.00 Build 0)  -->
<svg version="1.1" id="Layer_1" xmlns="http://www.w3.org/2000/svg" xmlns:xlink="http://www.w3.org/1999/xlink" x="0px" y="0px"
	 viewBox="0 0 1366 768" style="enable-background:new 0 0 1366 768;" xml:space="preserve">
<style type="text/css">
	.st0{fill:#3FC380;}
	.st1{fill:#2C8A5A;}
	.st2{fill:#FFFFFF;}
	.st3{opacity:0.2;fill:#CCCCCC;}
</style>
<g>
	<circle class="st0" cx="720" cy="420.8" r="272"/>
</g>
<g>
	<path class="st1" d="M679.7,549.7l-41,41L743,695C873,684.1,977,581.9,990.5,452.7L735.6,197.7L609.7,323.7l177,177l-78,78
		L679.7,549.7z"/>
</g>
<g>
	<path class="st2" d="M748.6,401.6c-4.2-1.8-8.4-3.4-12.6-4.7V289.6c0.5,0.2,1,0.4,1.4,0.6c9,3.9,16.5,9.9,22,17.3l23.1-54.1
		c-7.1-5.4-14.9-10-23.5-13.7c-7.6-3.2-15.3-5.5-23-7v-35.3h-32v34.2c-37.7,4.3-72.1,28.1-88,65.5c-23.6,55.4,2.1,119.4,57.4,143.1
		c8.6,3.7,17.3,6.1,26.2,7.5l-0.2,0.6c1.6-0.2,3.1-0.3,4.7-0.4v107.9c-6.5-0.2-13.1-1.6-19.4-4.3c-9-3.9-16.5-9.9-22-17.3
		l-23.1,54.1c7.1,5.4,14.9,10,23.5,13.7c13.4,5.7,27.3,8.6,41,8.8v33.5h32v-37.8c30.3-8.8,56.6-30.6,70-61.9
		C829.7,489.3,804,425.2,748.6,401.6z M695,389.5c-27.4-11.7-40.2-43.4-28.4-70.9c7-16.4,21.3-27.6,37.4-31.4v105.2
		C701,391.8,698,390.8,695,389.5z M755.4,523c-4.2,9.9-11.1,17.9-19.4,23.5V457C757.1,471.2,765.8,498.8,755.4,523z"/>
</g>
<path class="st3" d="M720,644.3v-447h-16v34.2c-37.7,4.3-72.1,28.1-88,65.5c-23.6,55.4,2.1,119.4,57.4,143.1
	c8.6,3.7,17.3,6.1,26.2,7.5l-0.2,0.6c1.6-0.2,3.1-0.3,4.7-0.4v107.9c-6.5-0.2-13.1-1.6-19.4-4.3c-9-3.9-16.5-9.9-22-17.3l-23.1,54.1
	c7.1,5.4,14.9,10,23.5,13.7c13.4,5.7,27.3,8.6,41,8.8v33.5H720z M695,389.5c-27.4-11.7-40.2-43.4-28.4-70.9
	c7-16.4,21.3-27.6,37.4-31.4v105.2C701,391.8,698,390.8,695,389.5z"/>
</svg>
